<?xml version="1.0" standalone="no"?>
<!DOCTYPE svg PUBLIC "-//W3C//DTD SVG 20010904//EN"
 "http://www.w3.org/TR/2001/REC-SVG-20010904/DTD/svg10.dtd">
<svg version="1.0" xmlns="http://www.w3.org/2000/svg"
 width="576.000000pt" height="576.000000pt" viewBox="0 0 576.000000 576.000000"
 preserveAspectRatio="xMidYMid meet">
<metadata>
Created by potrace 1.11, written by Peter Selinger 2001-2013
</metadata>
<g transform="translate(0.000000,576.000000) scale(0.100000,-0.100000)"
fill="#000000" stroke="none">
<path d="M0 2880 l0 -2880 2880 0 2880 0 0 2880 0 2880 -2880 0 -2880 0 0
-2880z m1479 1938 c25 -22 88 -81 139 -130 100 -97 113 -127 72 -168 -42 -42
-57 -33 -242 147 -106 103 -119 132 -78 173 30 30 58 24 109 -22z m1611 27
c255 -38 503 -153 687 -318 225 -202 367 -445 430 -737 25 -118 25 -445 0
-575 -43 -219 -128 -425 -244 -588 -76 -107 -264 -295 -385 -385 -72 -54 -101
-83 -117 -115 -28 -58 -27 -68 19 -99 77 -53 103 -164 60 -253 -20 -41 -20
-41 0 -80 27 -52 26 -133 0 -185 l-20 -40 21 -42 c30 -59 24 -150 -14 -207
-44 -67 -91 -85 -234 -89 l-123 -4 0 -32 c0 -64 -28 -132 -71 -170 -56 -51
-74 -56 -207 -56 -103 0 -122 3 -156 23 -86 49 -123 138 -114 274 7 109 -17
103 397 103 399 0 401 0 401 65 0 37 -28 65 -66 65 -26 0 -64 43 -64 72 0 26
44 68 71 68 45 0 71 47 53 94 -3 8 -27 22 -54 31 -37 12 -51 23 -60 46 -11 26
-10 34 7 57 11 14 35 30 54 35 44 11 62 29 62 61 0 34 -29 66 -60 66 -13 0
-35 12 -50 26 -23 23 -25 30 -18 81 18 147 54 202 205 318 309 235 479 484
557 815 19 81 26 144 30 276 9 260 -22 416 -117 609 -154 311 -436 540 -780
633 -87 24 -111 26 -295 26 -184 0 -208 -2 -295 -26 -466 -126 -805 -493 -886
-958 -24 -140 -15 -416 19 -560 79 -331 249 -580 557 -815 121 -93 164 -144
188 -226 l17 -59 311 0 c298 0 311 -1 332 -20 29 -27 29 -73 0 -100 -21 -19
-34 -20 -306 -20 l-284 0 31 -25 c16 -14 39 -41 50 -59 l21 -33 237 -7 c263
-8 273 -11 273 -71 0 -58 -24 -69 -171 -73 -95 -3 -129 -8 -129 -17 0 -22 -47
-45 -92 -45 -43 0 -108 -30 -108 -50 0 -6 78 -10 221 -10 216 0 252 -5 271
-34 14 -21 8 -66 -12 -86 -19 -19 -33 -20 -256 -20 -235 0 -236 0 -265 -24
-60 -51 -183 -81 -230 -56 -10 6 -19 7 -19 2 0 -19 27 -41 59 -49 73 -19 92
-97 31 -128 -61 -32 -171 20 -209 97 -27 57 -28 135 -2 187 20 38 20 38 0 79
-27 54 -27 129 0 185 l21 43 -20 39 c-44 86 -16 200 60 253 46 31 47 41 19 99
-16 32 -45 61 -117 115 -121 90 -309 278 -385 385 -116 163 -201 369 -244 588
-25 130 -25 457 0 575 37 172 104 332 203 482 62 96 258 291 358 358 278 186
623 264 946 215z m1270 -5 c41 -41 28 -70 -77 -173 -186 -180 -201 -189 -243
-147 -41 41 -28 71 73 168 195 188 205 194 247 152z m-3091 -661 c91 -28 174
-58 184 -67 36 -32 6 -92 -48 -92 -34 0 -349 101 -367 117 -37 33 -7 93 46 93
10 0 93 -23 185 -51z m3449 35 c26 -18 29 -55 5 -77 -19 -16 -334 -117 -368
-117 -54 0 -84 60 -47 92 19 18 323 116 362 117 14 1 36 -6 48 -15z m-2211
-305 c79 -30 162 -113 192 -192 17 -48 21 -80 21 -182 l0 -125 130 0 130 0 0
125 c0 102 4 134 21 182 30 79 113 162 192 192 122 45 243 17 338 -78 76 -75
103 -146 97 -251 -7 -122 -72 -220 -183 -278 -44 -23 -64 -27 -172 -30 -120
-4 -123 -5 -123 -27 0 -12 -9 -34 -20 -48 -19 -24 -20 -40 -20 -451 0 -413 -1
-427 -20 -446 -11 -11 -31 -20 -45 -20 -14 0 -34 9 -45 20 -19 19 -20 33 -20
425 l0 405 -130 0 -130 0 0 -405 c0 -392 -1 -406 -20 -425 -11 -11 -31 -20
-45 -20 -14 0 -34 9 -45 20 -19 19 -20 33 -20 446 0 411 -1 427 -20 451 -11
14 -20 36 -20 48 0 22 -3 23 -122 27 -102 3 -131 8 -169 26 -153 75 -228 260
-168 417 63 168 250 255 416 194z m-1150 -331 c30 -28 30 -74 1 -105 -21 -23
-25 -23 -219 -23 l-198 0 -20 26 c-12 15 -21 37 -21 49 0 12 9 34 21 49 l20
26 197 0 c187 0 197 -1 219 -22z m3512 -4 c12 -15 21 -37 21 -49 0 -12 -9 -34
-21 -49 l-20 -26 -197 0 c-187 0 -197 1 -219 22 -30 28 -30 74 -1 105 21 23
25 23 219 23 l198 0 20 -26z"/>
<path d="M2347 3785 c-86 -22 -140 -93 -140 -185 0 -61 17 -101 60 -142 43
-41 74 -48 205 -48 l120 0 -4 123 c-3 87 -9 131 -21 153 -15 30 -80 94 -95 94
-4 0 -23 4 -42 9 -23 5 -54 3 -83 -4z"/>
<path d="M3257 3785 c-27 -7 -62 -25 -78 -41 -54 -51 -62 -78 -67 -211 l-4
-123 120 0 c66 0 133 5 149 11 35 13 80 55 101 94 20 39 20 131 -1 171 -15 30
-80 94 -95 94 -4 0 -23 4 -42 9 -23 5 -54 3 -83 -4z"/>
</g>
</svg>
