<svg xmlns="http://www.w3.org/2000/svg" width="179" height="70" viewBox="0 0 179 70">
    <defs>
        <filter id="a" width="175%" height="175%" x="-37.5%" y="-31.2%" filterUnits="objectBoundingBox">
            <feOffset dy="3" in="SourceAlpha" result="shadowOffsetOuter1"/>
            <feGaussianBlur in="shadowOffsetOuter1" result="shadowBlurOuter1" stdDeviation="5.5"/>
            <feColorMatrix in="shadowBlurOuter1" result="shadowMatrixOuter1" values="0 0 0 0 1 0 0 0 0 0.858823529 0 0 0 0 0.0823529412 0 0 0 1 0"/>
            <feMerge>
                <feMergeNode in="shadowMatrixOuter1"/>
                <feMergeNode in="SourceGraphic"/>
            </feMerge>
        </filter>
    </defs>
    <g fill="none" fill-rule="evenodd">
        <g fill="#FFF">
            <path d="M76.636 10.28l-.301 2.11h-5.492v4.152h4.781v2.109h-4.781v4.368h5.88v2.13H68V10.281h8.636zm5.212 15.192c-.875 0-1.561-.255-2.056-.764-.496-.51-.743-1.23-.743-2.162V9.205l2.756-.301V22.46c0 .53.216.796.647.796.215 0 .43-.036.646-.108l.581 1.937a4.413 4.413 0 0 1-1.83.387zm12.901-6.283c0 .143-.021.516-.064 1.119h-7.15c.085 1.104.373 1.893.86 2.367.489.473 1.135.71 1.94.71.502 0 .976-.083 1.42-.248.446-.165.92-.42 1.422-.763l1.142 1.57c-1.264 1.019-2.671 1.528-4.222 1.528-1.737 0-3.076-.53-4.016-1.592s-1.411-2.51-1.411-4.347c0-1.162.2-2.205.603-3.13.402-.926.983-1.65 1.744-2.174.761-.523 1.666-.785 2.714-.785 1.594 0 2.829.506 3.705 1.517.875 1.011 1.313 2.42 1.313 4.228zm-2.735-.796c0-1.994-.74-2.991-2.218-2.991-.675 0-1.203.247-1.583.742-.38.495-.607 1.288-.679 2.378h4.48v-.13zm9.8-4.95c.746 0 1.417.108 2.013.324.596.215 1.16.552 1.691 1.01l-1.228 1.658a4.43 4.43 0 0 0-1.12-.624 3.478 3.478 0 0 0-1.184-.194c-1.709 0-2.563 1.298-2.563 3.895 0 1.32.222 2.27.668 2.85.445.582 1.076.872 1.895.872a3.08 3.08 0 0 0 1.11-.193c.336-.13.735-.338 1.194-.624l1.228 1.742a5.68 5.68 0 0 1-3.683 1.313c-1.091 0-2.039-.24-2.843-.72-.804-.481-1.421-1.166-1.852-2.056-.43-.89-.646-1.936-.646-3.141s.215-2.27.646-3.196c.43-.925 1.048-1.642 1.852-2.151.804-.51 1.745-.764 2.822-.764zm12.233 11.168c-.402.287-.85.502-1.346.646a5.432 5.432 0 0 1-1.519.215c-1.12-.014-1.97-.334-2.552-.958-.581-.624-.872-1.545-.872-2.764v-6.004h-1.788v-1.98h1.788V11.25l2.757-.323v2.84h2.649l-.28 1.98h-2.37v5.939c0 .56.098.961.291 1.205.194.244.5.366.916.366.416 0 .868-.137 1.357-.41l.969 1.765zm7.172-11.146c.416 0 .797.05 1.141.151l-.474 2.668a4.168 4.168 0 0 0-1.012-.129c-.675 0-1.206.24-1.594.72-.387.481-.696 1.217-.926 2.206v6.068h-2.757V13.767h2.391l.259 2.237c.272-.817.667-1.445 1.184-1.882a2.686 2.686 0 0 1 1.788-.657zm5.62.302v11.382h-2.756V13.767h2.757zM125.44 8c.517 0 .937.161 1.26.484.323.323.485.721.485 1.194 0 .474-.162.868-.485 1.184-.323.315-.743.473-1.26.473-.503 0-.915-.158-1.238-.473a1.586 1.586 0 0 1-.485-1.184c0-.473.162-.871.485-1.194.323-.323.735-.484 1.238-.484zm9.304 5.444c.747 0 1.418.107 2.014.323.596.215 1.16.552 1.69 1.01l-1.227 1.658a4.43 4.43 0 0 0-1.12-.624 3.478 3.478 0 0 0-1.185-.194c-1.708 0-2.563 1.298-2.563 3.895 0 1.32.223 2.27.668 2.85.445.582 1.077.872 1.895.872a3.08 3.08 0 0 0 1.11-.193c.337-.13.735-.338 1.195-.624l1.228 1.742a5.68 5.68 0 0 1-3.683 1.313c-1.092 0-2.04-.24-2.843-.72-.804-.481-1.422-1.166-1.852-2.056-.431-.89-.647-1.936-.647-3.141s.216-2.27.647-3.196c.43-.925 1.048-1.642 1.852-2.151.804-.51 1.744-.764 2.821-.764zm8.464.323v11.382h-2.756V13.767h2.756zM141.808 8c.517 0 .937.161 1.26.484.323.323.485.721.485 1.194 0 .474-.162.868-.485 1.184-.323.315-.743.473-1.26.473-.502 0-.915-.158-1.238-.473a1.586 1.586 0 0 1-.485-1.184c0-.473.162-.871.485-1.194.323-.323.736-.484 1.238-.484zm13.138 14.137c0 .445.068.77.205.979.136.208.355.37.657.484l-.582 1.829c-.646-.057-1.174-.215-1.583-.473-.41-.259-.721-.653-.937-1.184a3.65 3.65 0 0 1-1.454 1.28c-.581.28-1.23.42-1.949.42-1.134 0-2.031-.323-2.692-.968-.66-.646-.99-1.492-.99-2.54 0-1.233.448-2.176 1.346-2.829.897-.653 2.178-.979 3.844-.979h1.421v-.645c0-.732-.168-1.245-.506-1.539-.337-.294-.88-.441-1.626-.441-.833 0-1.838.2-3.015.603l-.646-1.872c1.421-.546 2.8-.818 4.135-.818 2.915 0 4.372 1.305 4.372 3.916v4.777zm-4.91 1.334c.933 0 1.665-.466 2.196-1.399V19.77h-1.141c-1.78 0-2.67.66-2.67 1.98 0 .545.136.968.409 1.269.272.301.674.452 1.206.452zm14.322-10.027c1.02 0 1.813.305 2.38.914.567.61.85 1.46.85 2.55v8.241h-2.756v-7.81c0-.675-.119-1.148-.356-1.42-.237-.273-.585-.41-1.044-.41-.474 0-.901.148-1.282.442-.38.294-.75.72-1.109 1.28v7.918h-2.757V13.767h2.391l.215 1.484c.934-1.205 2.09-1.807 3.468-1.807zm10.036 0c1.537 0 2.886.452 4.05 1.355l-1.078 1.614c-.976-.617-1.93-.925-2.864-.925-.546 0-.97.104-1.27.312-.302.208-.453.484-.453.828 0 .259.065.474.194.646.13.172.362.333.7.484.337.15.836.32 1.497.506 1.234.33 2.15.767 2.746 1.312.596.545.893 1.306.893 2.281 0 1.133-.459 2.02-1.378 2.657-.919.639-2.06.958-3.424.958-.934 0-1.784-.143-2.553-.43a6.195 6.195 0 0 1-1.992-1.184l1.379-1.549c.99.746 2.024 1.119 3.101 1.119.617 0 1.11-.122 1.475-.366.366-.244.55-.58.55-1.011 0-.33-.069-.592-.205-.786-.136-.193-.38-.365-.732-.516-.352-.15-.901-.334-1.648-.549-1.163-.315-2.017-.756-2.563-1.323-.545-.567-.818-1.273-.818-2.12 0-.63.183-1.197.549-1.7.366-.501.883-.896 1.55-1.183.668-.287 1.433-.43 2.294-.43zM85.316 40.488l-2.735 14.868h-3.705L76.615 43.5l-2.326 11.856h-3.597L68 40.488h2.821l1.896 12.609 2.433-12.61h3.016l2.39 12.61 2.068-12.61h2.692zm4.76 3.486v11.382h-2.757V43.974h2.757zm-1.4-5.767c.517 0 .937.161 1.26.484.323.323.484.72.484 1.194s-.161.868-.484 1.184c-.323.315-.743.473-1.26.473-.503 0-.916-.158-1.239-.473a1.586 1.586 0 0 1-.484-1.184c0-.473.161-.871.484-1.194.323-.323.736-.484 1.239-.484zm10.338 5.465c.416 0 .797.05 1.141.15l-.474 2.669a4.168 4.168 0 0 0-1.012-.13c-.675 0-1.206.241-1.594.722-.387.48-.696 1.215-.926 2.205v6.068h-2.757V43.974h2.391l.259 2.237c.272-.817.667-1.445 1.184-1.882a2.686 2.686 0 0 1 1.788-.657zm11.565 5.724c0 .143-.021.516-.064 1.119h-7.15c.085 1.104.373 1.893.86 2.367.489.473 1.135.71 1.94.71.502 0 .975-.083 1.42-.248.446-.165.92-.42 1.422-.764l1.142 1.571c-1.264 1.019-2.671 1.528-4.222 1.528-1.737 0-3.076-.53-4.017-1.592-.94-1.062-1.41-2.51-1.41-4.347 0-1.162.2-2.205.603-3.13.402-.926.983-1.65 1.744-2.174.761-.523 1.666-.785 2.714-.785 1.594 0 2.829.505 3.704 1.517.876 1.011 1.314 2.42 1.314 4.228zm-2.735-.796c0-1.994-.74-2.991-2.218-2.991-.675 0-1.203.247-1.583.742-.38.495-.607 1.288-.679 2.378h4.48v-.13zm11.738 6.218c-.402.287-.85.502-1.346.646a5.432 5.432 0 0 1-1.519.215c-1.12-.014-1.97-.334-2.552-.958-.581-.624-.872-1.545-.872-2.765v-6.003h-1.788v-1.98h1.788v-2.517l2.757-.323v2.84h2.649l-.28 1.98h-2.37v5.939c0 .56.098.961.291 1.205.194.244.5.366.916.366.416 0 .869-.137 1.357-.41l.969 1.765zm10.532-5.422c0 .143-.022.516-.065 1.119h-7.15c.086 1.104.373 1.893.861 2.367.488.473 1.134.71 1.938.71.503 0 .977-.083 1.422-.248.445-.165.919-.42 1.421-.764l1.142 1.571c-1.264 1.019-2.67 1.528-4.221 1.528-1.738 0-3.077-.53-4.017-1.592-.94-1.062-1.41-2.51-1.41-4.347 0-1.162.2-2.205.602-3.13.402-.926.984-1.65 1.745-2.174.76-.523 1.665-.785 2.713-.785 1.594 0 2.829.505 3.705 1.517.876 1.011 1.314 2.42 1.314 4.228zm-2.736-.796c0-1.994-.74-2.991-2.218-2.991-.675 0-1.202.247-1.583.742-.38.495-.607 1.288-.678 2.378h4.48v-.13zm10.338.667l3.812 6.09h-3.187l-2.348-4.52-2.326 4.52h-3.036l3.79-6.004-3.403-5.38h3.145l1.938 3.874 1.917-3.873h2.993l-3.295 5.293z"/>
        </g>
        <g fill="#FFDB15" fill-rule="nonzero" filter="url(#a)" transform="translate(10 8)">
            <path d="M25.925 31.245a.794.794 0 0 0 .792-.797V19.291h2.377c2.185 0 3.963-1.788 3.963-3.985 0-2.198-1.778-3.985-3.963-3.985-2.184 0-3.962 1.787-3.962 3.985v2.39h-3.17v-2.39c0-2.198-1.777-3.985-3.962-3.985-2.185 0-3.962 1.787-3.962 3.985 0 2.197 1.777 3.985 3.962 3.985h2.377v11.157c0 .44.355.797.793.797a.795.795 0 0 0 .792-.797V19.291h3.17v11.157c0 .44.354.797.793.797zm.792-15.94a2.387 2.387 0 0 1 2.377-2.39 2.387 2.387 0 0 1 2.378 2.39 2.387 2.387 0 0 1-2.378 2.392h-2.377v-2.391zm-6.34 2.392H18a2.387 2.387 0 0 1-2.377-2.391A2.387 2.387 0 0 1 18 12.915a2.387 2.387 0 0 1 2.377 2.39v2.392zM5.711 1.38l2.975 2.512a.771.771 0 0 0 1.095-.096.785.785 0 0 0-.096-1.101L6.71.182A.775.775 0 0 0 5.616.28.785.785 0 0 0 5.71 1.38zM6.258 8.994l-3.81-1.252c-.422-.137-.886.058-1.04.438-.153.38.063.8.484.939l3.811 1.251a.89.89 0 0 0 .278.045c.33 0 .642-.185.762-.482.154-.38-.064-.8-.485-.94zM38.362 4.075a.77.77 0 0 0 .498-.182l2.976-2.513A.784.784 0 0 0 41.93.279a.774.774 0 0 0-1.094-.097l-2.975 2.513a.785.785 0 0 0-.095 1.101c.153.184.373.28.595.28zM5.046 14.943H.84c-.464 0-.841.406-.841.906s.377.906.841.906h4.205c.464 0 .84-.406.84-.906s-.376-.906-.84-.906zM46.14 8.18c-.153-.38-.62-.576-1.04-.437l-3.811 1.252c-.422.138-.638.558-.485.938.12.298.43.482.762.482a.863.863 0 0 0 .277-.045l3.812-1.252c.42-.138.638-.558.484-.938zM47.16 14.943h-4.206c-.465 0-.84.406-.84.906s.375.906.84.906h4.205c.465 0 .841-.406.841-.906s-.376-.906-.84-.906z"/>
            <path d="M24.226 0C15.362 0 8.151 7.178 8.151 16c0 6.752 2.66 11.789 8.374 15.851.028.02.068.043.098.06.042.022.906.502 1.123 1.851A2.4 2.4 0 0 0 16.19 36c0 .614.233 1.175.615 1.6a2.383 2.383 0 0 0 0 3.2 2.383 2.383 0 0 0-.615 1.6c0 1.323 1.082 2.4 2.411 2.4a.802.802 0 0 0 .804-.8c0-.441-.36-.8-.804-.8a.803.803 0 0 1-.804-.8c0-.44.361-.8.804-.8h8.038a.802.802 0 0 0 .803-.8c0-.441-.359-.8-.803-.8H18.6a.803.803 0 0 1-.804-.8c0-.44.361-.8.804-.8h8.038a.802.802 0 0 0 .803-.8c0-.441-.359-.8-.803-.8H18.6a.803.803 0 0 1-.804-.8c0-.44.361-.8.804-.8h8.038a.802.802 0 0 0 .803-.8c0-.441-.359-.8-.803-.8h-7.289c-.284-2.014-1.596-2.887-1.925-3.075C12.122 26.743 9.76 22.262 9.76 16c0-7.94 6.49-14.4 14.468-14.4 7.977 0 14.467 6.46 14.467 14.4 0 6.261-2.364 10.742-7.665 14.524-.37.212-1.98 1.288-1.98 3.876 0 .441.36.8.804.8.444 0 .804.359.804.8 0 .44-.36.8-.804.8a.802.802 0 0 0-.804.8c0 .441.36.8.804.8.444 0 .804.359.804.8 0 .44-.36.8-.804.8a.802.802 0 0 0-.804.8c0 .44.36.8.804.8.444 0 .804.358.804.8 0 .455-.346.8-.804.8h-8.038a.802.802 0 0 0-.804.8V45.6c0 1.323 1.082 2.4 2.412 2.4h1.607a2.409 2.409 0 0 0 2.412-2.4v-.8h2.41a2.38 2.38 0 0 0 2.412-2.4c0-.614-.233-1.175-.616-1.6a2.383 2.383 0 0 0 0-3.2c.383-.425.616-.986.616-1.6a2.4 2.4 0 0 0-1.558-2.238c.217-1.349 1.08-1.829 1.114-1.847a.759.759 0 0 0 .107-.064c5.714-4.062 8.375-9.1 8.375-15.851 0-8.822-7.212-16-16.076-16zm1.608 45.6c0 .44-.36.8-.804.8h-1.607a.803.803 0 0 1-.804-.8v-.8h3.215v.8z"/>
        </g>
    </g>
</svg>
