<svg xmlns="http://www.w3.org/2000/svg" width="68" height="70" viewBox="0 0 68 70">
    <defs>
        <filter id="a" width="175%" height="175%" x="-37.5%" y="-31.2%" filterUnits="objectBoundingBox">
            <feOffset dy="3" in="SourceAlpha" result="shadowOffsetOuter1"/>
            <feGaussianBlur in="shadowOffsetOuter1" result="shadowBlurOuter1" stdDeviation="5.5"/>
            <feColorMatrix in="shadowBlurOuter1" result="shadowMatrixOuter1" values="0 0 0 0 1 0 0 0 0 0.858823529 0 0 0 0 0.0823529412 0 0 0 1 0"/>
            <feMerge>
                <feMergeNode in="shadowMatrixOuter1"/>
                <feMergeNode in="SourceGraphic"/>
            </feMerge>
        </filter>
    </defs>
    <g fill="#FFDB15" fill-rule="nonzero" filter="url(#a)" transform="translate(10 8)">
        <path d="M25.925 31.245a.794.794 0 0 0 .792-.797V19.291h2.377c2.185 0 3.963-1.788 3.963-3.985 0-2.198-1.778-3.985-3.963-3.985-2.184 0-3.962 1.787-3.962 3.985v2.39h-3.17v-2.39c0-2.198-1.777-3.985-3.962-3.985-2.185 0-3.962 1.787-3.962 3.985 0 2.197 1.777 3.985 3.962 3.985h2.377v11.157c0 .44.355.797.793.797a.795.795 0 0 0 .792-.797V19.291h3.17v11.157c0 .44.354.797.793.797zm.792-15.94a2.387 2.387 0 0 1 2.377-2.39 2.387 2.387 0 0 1 2.378 2.39 2.387 2.387 0 0 1-2.378 2.392h-2.377v-2.391zm-6.34 2.392H18a2.387 2.387 0 0 1-2.377-2.391A2.387 2.387 0 0 1 18 12.915a2.387 2.387 0 0 1 2.377 2.39v2.392zM5.711 1.38l2.975 2.512a.771.771 0 0 0 1.095-.096.785.785 0 0 0-.096-1.101L6.71.182A.775.775 0 0 0 5.616.28.785.785 0 0 0 5.71 1.38zM6.258 8.994l-3.81-1.252c-.422-.137-.886.058-1.04.438-.153.38.063.8.484.939l3.811 1.251a.89.89 0 0 0 .278.045c.33 0 .642-.185.762-.482.154-.38-.064-.8-.485-.94zM38.362 4.075a.77.77 0 0 0 .498-.182l2.976-2.513A.784.784 0 0 0 41.93.279a.774.774 0 0 0-1.094-.097l-2.975 2.513a.785.785 0 0 0-.095 1.101c.153.184.373.28.595.28zM5.046 14.943H.84c-.464 0-.841.406-.841.906s.377.906.841.906h4.205c.464 0 .84-.406.84-.906s-.376-.906-.84-.906zM46.14 8.18c-.153-.38-.62-.576-1.04-.437l-3.811 1.252c-.422.138-.638.558-.485.938.12.298.43.482.762.482a.863.863 0 0 0 .277-.045l3.812-1.252c.42-.138.638-.558.484-.938zM47.16 14.943h-4.206c-.465 0-.84.406-.84.906s.375.906.84.906h4.205c.465 0 .841-.406.841-.906s-.376-.906-.84-.906z"/>
        <path d="M24.226 0C15.362 0 8.151 7.178 8.151 16c0 6.752 2.66 11.789 8.374 15.851.028.02.068.043.098.06.042.022.906.502 1.123 1.851A2.4 2.4 0 0 0 16.19 36c0 .614.233 1.175.615 1.6a2.383 2.383 0 0 0 0 3.2 2.383 2.383 0 0 0-.615 1.6c0 1.323 1.082 2.4 2.411 2.4a.802.802 0 0 0 .804-.8c0-.441-.36-.8-.804-.8a.803.803 0 0 1-.804-.8c0-.44.361-.8.804-.8h8.038a.802.802 0 0 0 .803-.8c0-.441-.359-.8-.803-.8H18.6a.803.803 0 0 1-.804-.8c0-.44.361-.8.804-.8h8.038a.802.802 0 0 0 .803-.8c0-.441-.359-.8-.803-.8H18.6a.803.803 0 0 1-.804-.8c0-.44.361-.8.804-.8h8.038a.802.802 0 0 0 .803-.8c0-.441-.359-.8-.803-.8h-7.289c-.284-2.014-1.596-2.887-1.925-3.075C12.122 26.743 9.76 22.262 9.76 16c0-7.94 6.49-14.4 14.468-14.4 7.977 0 14.467 6.46 14.467 14.4 0 6.261-2.364 10.742-7.665 14.524-.37.212-1.98 1.288-1.98 3.876 0 .441.36.8.804.8.444 0 .804.359.804.8 0 .44-.36.8-.804.8a.802.802 0 0 0-.804.8c0 .441.36.8.804.8.444 0 .804.359.804.8 0 .44-.36.8-.804.8a.802.802 0 0 0-.804.8c0 .44.36.8.804.8.444 0 .804.358.804.8 0 .455-.346.8-.804.8h-8.038a.802.802 0 0 0-.804.8V45.6c0 1.323 1.082 2.4 2.412 2.4h1.607a2.409 2.409 0 0 0 2.412-2.4v-.8h2.41a2.38 2.38 0 0 0 2.412-2.4c0-.614-.233-1.175-.616-1.6a2.383 2.383 0 0 0 0-3.2c.383-.425.616-.986.616-1.6a2.4 2.4 0 0 0-1.558-2.238c.217-1.349 1.08-1.829 1.114-1.847a.759.759 0 0 0 .107-.064c5.714-4.062 8.375-9.1 8.375-15.851 0-8.822-7.212-16-16.076-16zm1.608 45.6c0 .44-.36.8-.804.8h-1.607a.803.803 0 0 1-.804-.8v-.8h3.215v.8z"/>
    </g>
</svg>
