<svg xmlns="http://www.w3.org/2000/svg" width="25" height="25" viewBox="0 0 25 25">
    <path fill="#FFF" fill-rule="nonzero" d="M5.09 16.605c2.464 2.945 5.43 5.264 8.815 6.904 1.289.611 3.012 1.336 4.932 1.46.12.005.233.01.352.01 1.29 0 2.324-.445 3.168-1.361.005-.005.016-.016.02-.026.301-.362.643-.688 1-1.035.243-.233.491-.476.73-.725 1.102-1.149 1.102-2.608-.01-3.721L20.984 15c-.527-.549-1.159-.839-1.821-.839-.663 0-1.3.29-1.843.834l-1.853 1.853c-.171-.099-.347-.187-.513-.27a6.4 6.4 0 0 1-.569-.31c-1.687-1.071-3.22-2.469-4.684-4.265-.74-.937-1.237-1.723-1.584-2.526.487-.44.942-.9 1.382-1.35.155-.161.316-.322.476-.482.56-.56.86-1.206.86-1.863 0-.658-.296-1.305-.86-1.864L8.434 2.376c-.181-.181-.352-.357-.528-.539A28.39 28.39 0 0 0 6.855.797C6.322.274 5.695 0 5.033 0 4.376 0 3.744.274 3.19.802L1.255 2.738A3.977 3.977 0 0 0 .069 5.285c-.098 1.237.13 2.551.72 4.14.906 2.46 2.272 4.742 4.301 7.18zM1.332 5.393a2.738 2.738 0 0 1 .823-1.76l1.926-1.925c.3-.29.631-.44.952-.44.316 0 .637.15.932.45.347.321.673.658 1.025 1.015.176.181.357.362.538.549L9.07 4.824c.321.32.487.647.487.968 0 .32-.166.647-.487.968-.16.16-.32.326-.481.486-.481.487-.932.948-1.429 1.388l-.025.025c-.43.43-.363.839-.26 1.15l.016.04c.399.958.953 1.87 1.817 2.956 1.553 1.915 3.188 3.401 4.99 4.545.222.145.46.259.683.373a6.4 6.4 0 0 1 .57.31l.056.031c.171.088.337.13.502.13.414 0 .683-.264.771-.352l1.936-1.936c.3-.3.627-.46.948-.46.393 0 .714.242.916.46l3.12 3.116c.622.62.617 1.294-.015 1.951-.217.233-.445.456-.688.688-.362.352-.74.715-1.082 1.124-.595.642-1.304.942-2.22.942-.088 0-.182-.005-.27-.01-1.697-.11-3.276-.772-4.461-1.336-3.22-1.558-6.046-3.768-8.39-6.574-1.931-2.324-3.23-4.487-4.09-6.806-.533-1.423-.735-2.567-.652-3.608z"/>
</svg>
